# Blender v3.1.2 OBJ File: ''
# www.blender.org
mtllib untitled.mtl
o Cube.001
v -1.000000 0.988659 0.360900
v 0.425442 -0.417604 1.759836
v 1.000000 0.988659 0.360900
v -0.114450 -1.725813 2.224810
v 0.114450 -1.725813 2.224810
v -0.425442 -0.417604 1.759836
v -1.338636 -1.215476 -0.790062
v 1.338636 -1.215476 -0.790062
v 1.931248 -1.010862 -3.898117
v -1.931248 -1.010862 -3.898117
v -2.274971 3.249927 -3.553900
v -2.597499 -1.834780 -5.799387
v -1.338636 1.794336 -1.726215
v 1.338636 1.794336 -1.726215
v -3.304715 3.324648 -8.422157
v -2.943471 -4.123461 -8.777478
v 2.597499 -1.834780 -5.799387
v 2.274971 3.249927 -3.553900
v 3.304715 3.324648 -8.422157
v -2.676214 1.521290 -14.081545
v 2.943471 -4.123461 -8.777478
v 2.676214 -3.563416 -16.327030
v -2.676214 -3.563416 -16.327030
v 2.676214 1.521290 -14.081545
v 4.380476 -6.298611 -16.993561
v -4.755435 -8.610218 -7.049816
v 5.844616 -15.099293 -6.917671
v 4.755435 -8.610218 -7.049816
v -4.380476 -6.298611 -16.993561
v -5.372273 -12.187319 -19.443989
v -6.955647 -23.652708 -8.334715
v -5.844616 -15.099293 -6.917671
v 5.372273 -12.187319 -19.443989
v 6.385331 -20.136730 -23.459255
v 5.013890 -28.804403 -18.363367
v 3.461506 -30.915365 -29.439230
v -6.385331 -20.136730 -23.459255
v 6.955647 -23.652708 -8.334715
v -5.013890 -28.804403 -18.363367
v -3.461506 -30.915365 -29.439230
vt 0.896181 0.821408
vt 0.917041 0.857903
vt 0.885614 0.850325
vt 0.933266 0.831102
vt 0.949984 0.863264
vt 0.919262 0.829447
vt 0.924857 0.790391
vt 0.991081 0.794954
vt 0.883859 0.907644
vt 0.999901 0.705462
vt 0.896108 0.726237
vt 0.834318 0.778934
vt 0.883409 0.674935
vt 0.865608 0.797984
vt 0.845785 0.844275
vt 0.784376 0.738735
vt 0.829391 0.583408
vt 0.987070 0.648427
vt 0.793982 0.916172
vt 0.807271 0.824529
vt 0.745143 0.801703
vt 0.718502 0.704854
vt 0.986561 0.538461
vt 0.737738 0.931691
vt 0.597433 0.727038
vt 0.658860 0.643232
vt 0.618416 0.922276
vt 0.683878 0.761584
vt 0.527992 0.722077
vt 0.791712 0.471776
vt 0.950805 0.231137
vt 0.999901 0.408197
vt 0.635086 0.589897
vt 0.555704 0.501102
vt 0.639226 0.273844
vt 0.731163 0.367081
vt 0.470330 0.983411
vt 0.404446 0.657077
vt 0.257596 0.519410
vt 0.000099 0.493623
vt 0.209549 0.202368
vt 0.460541 0.384696
vt 0.022852 0.858044
vt 0.811447 0.034846
vt 0.486757 0.232403
vt 0.468126 0.000099
vt 0.354951 0.281952
vt 0.273043 0.964717
vn 0.0000 0.7053 0.7090
vn 0.0000 0.3349 0.9423
vn -0.9279 -0.0922 0.3612
vn 0.0000 -0.9860 -0.1669
vn 0.9279 -0.0922 0.3612
vn 0.0000 -0.9978 -0.0657
vn -0.9236 -0.1043 0.3689
vn 0.0000 0.9329 0.3601
vn 0.9817 0.0566 0.1820
vn 0.9818 0.0562 0.1812
vn 0.9819 0.0563 0.1810
vn -0.9817 0.0566 0.1820
vn -0.9818 0.0562 0.1812
vn -0.9798 0.0593 0.1907
vn -0.9860 -0.0553 0.1571
vn 0.0000 -0.9175 0.3976
vn 0.0000 0.7822 0.6230
vn 0.9166 -0.1051 0.3858
vn 0.0000 0.9528 -0.3036
vn 0.0000 -0.7929 0.6093
vn 0.0000 0.9999 0.0153
vn 0.9780 -0.0291 0.2064
vn 0.0000 0.4040 -0.9148
vn 0.9979 -0.0121 -0.0635
vn 0.9978 -0.0137 -0.0648
vn 0.9944 -0.0436 -0.0965
vn -0.9979 -0.0121 -0.0635
vn -0.9978 -0.0137 -0.0648
vn -0.9993 0.0151 -0.0343
vn 0.8497 0.5272 0.0090
vn 0.0000 0.0204 0.9998
vn 0.0000 0.2368 -0.9716
vn -0.9180 0.3925 0.0566
vn 0.0000 0.3593 0.9332
vn -0.9915 0.1300 -0.0072
vn -0.9862 0.1656 0.0013
vn 0.0000 0.3842 -0.9233
vn 0.9862 0.1656 0.0013
vn 0.9753 -0.2041 -0.0848
vn 0.9730 -0.2101 -0.0955
vn 0.9728 -0.2105 -0.0962
vn 0.0000 0.4509 -0.8926
vn 0.9915 0.1300 -0.0072
vn 0.0000 -0.1634 0.9866
vn 0.0000 -0.9823 0.1872
vn 0.0000 -0.8895 0.4569
vn -0.9753 -0.2041 -0.0848
vn -0.9730 -0.2101 -0.0955
vn -0.9754 -0.2038 -0.0842
vn 0.0000 0.4851 -0.8744
vn -0.9370 -0.0374 0.3473
vn 0.9370 -0.0374 0.3473
vn -0.9166 -0.1051 0.3858
vn 0.9798 0.0593 0.1907
vn -0.9819 0.0563 0.1810
vn -0.9780 -0.0291 0.2064
vn 0.9236 -0.1043 0.3689
vn 0.9860 -0.0553 0.1571
vn 0.9993 0.0151 -0.0343
vn -0.9944 -0.0436 -0.0965
vn 0.9180 0.3925 0.0566
vn -0.8497 0.5272 0.0090
vn 0.9754 -0.2038 -0.0842
vn -0.9728 -0.2105 -0.0962
usemtl Material.001
s 1
f 1/1/1 2/2/1 3/3/1
f 2/2/2 4/4/2 5/5/2
f 6/6/3 7/7/3 4/4/3
f 8/8/4 4/4/4 7/7/4
f 8/9/5 2/2/5 5/5/5
f 7/7/6 9/10/6 8/8/6
f 10/11/7 11/12/7 12/13/7
f 3/3/8 13/14/8 1/1/8
f 8/9/9 14/15/10 3/3/11
f 7/7/12 13/14/13 10/11/14
f 12/13/15 15/16/15 16/17/15
f 10/11/16 17/18/16 9/10/16
f 14/15/17 11/12/17 13/14/17
f 9/19/18 18/20/18 14/15/18
f 19/21/19 20/22/19 15/16/19
f 12/13/20 21/23/20 17/18/20
f 18/20/21 15/16/21 11/12/21
f 17/24/22 19/21/22 18/20/22
f 20/22/23 22/25/23 23/26/23
f 21/27/24 24/28/25 19/21/26
f 16/17/27 20/22/28 23/26/29
f 21/27/30 25/29/30 22/25/30
f 26/30/31 27/31/31 28/32/31
f 22/25/32 29/33/32 23/26/32
f 16/17/33 29/33/33 26/30/33
f 16/17/34 28/32/34 21/23/34
f 30/34/35 31/35/35 32/36/35
f 26/30/36 30/34/36 32/36/36
f 25/29/37 30/34/37 29/33/37
f 28/37/38 33/38/38 25/29/38
f 34/39/39 35/40/40 36/41/41
f 33/38/42 37/42/42 30/34/42
f 33/38/43 38/43/43 34/39/43
f 32/36/44 38/44/44 27/31/44
f 39/45/45 36/41/45 35/46/45
f 31/35/46 35/46/46 38/44/46
f 37/42/47 39/45/48 31/35/49
f 34/39/50 40/47/50 37/42/50
f 1/1/1 6/6/1 2/2/1
f 2/2/2 6/6/2 4/4/2
f 6/6/51 1/1/51 7/7/51
f 8/8/4 5/5/4 4/4/4
f 8/9/52 3/3/52 2/2/52
f 7/7/6 10/11/6 9/10/6
f 10/11/53 13/14/53 11/12/53
f 3/3/8 14/15/8 13/14/8
f 8/9/9 9/19/54 14/15/10
f 7/7/12 1/1/55 13/14/13
f 12/13/56 11/12/56 15/16/56
f 10/11/16 12/13/16 17/18/16
f 14/15/17 18/20/17 11/12/17
f 9/19/57 17/24/57 18/20/57
f 19/21/19 24/28/19 20/22/19
f 12/13/20 16/17/20 21/23/20
f 18/20/21 19/21/21 15/16/21
f 17/24/58 21/27/58 19/21/58
f 20/22/23 24/28/23 22/25/23
f 21/27/24 22/25/59 24/28/25
f 16/17/27 15/16/60 20/22/28
f 21/27/61 28/37/61 25/29/61
f 26/30/31 32/36/31 27/31/31
f 22/25/32 25/29/32 29/33/32
f 16/17/62 23/26/62 29/33/62
f 16/17/34 26/30/34 28/32/34
f 30/34/35 37/42/35 31/35/35
f 26/30/36 29/33/36 30/34/36
f 25/29/37 33/38/37 30/34/37
f 28/37/38 27/48/38 33/38/38
f 34/39/39 38/43/63 35/40/40
f 33/38/42 34/39/42 37/42/42
f 33/38/43 27/48/43 38/43/43
f 32/36/44 31/35/44 38/44/44
f 39/45/45 40/47/45 36/41/45
f 31/35/46 39/45/46 35/46/46
f 37/42/47 40/47/64 39/45/48
f 34/39/50 36/41/50 40/47/50
